<svg width="40" height="40" viewBox="0 0 40 40" fill="none" xmlns="http://www.w3.org/2000/svg">
<path fill-rule="evenodd" clip-rule="evenodd" d="M30.0143 5H8.31908C6.48951 5 5 6.45665 5 8.26169V29.6683C5 31.4733 6.48951 32.93 8.31908 32.93H26.6791L25.8209 30.0008L27.8934 31.885L29.8524 33.6584L33.3333 36.6667V8.26169C33.3333 6.45665 31.8438 5 30.0143 5ZM23.7648 25.6783C23.7648 25.6783 23.1819 24.9975 22.6962 24.3958C24.8171 23.81 25.6266 22.5117 25.6266 22.5117C24.9629 22.9392 24.3314 23.24 23.7648 23.4458C22.9553 23.7783 22.1781 24 21.4171 24.1267C19.8628 24.4117 18.4381 24.3325 17.2238 24.1108C16.3009 23.9367 15.5076 23.6833 14.8438 23.43C14.4714 23.2875 14.0667 23.1133 13.6619 22.8917C13.6376 22.8759 13.6134 22.864 13.5891 22.8521C13.5648 22.8402 13.5405 22.8283 13.5162 22.8125C13.4838 22.7967 13.4676 22.7809 13.4514 22.765C13.3609 22.7159 13.2829 22.6712 13.2183 22.6331C13.1872 22.6147 13.1592 22.5978 13.1345 22.5827C13.0453 22.5281 12.9981 22.4958 12.9981 22.4958C12.9981 22.4958 13.7752 23.7625 15.8314 24.3642C15.7493 24.4659 15.6638 24.5709 15.5786 24.675C15.4461 24.837 15.3142 24.997 15.1956 25.1399C14.9398 25.4486 14.7467 25.6783 14.7467 25.6783C11.1686 25.5675 9.80859 23.2717 9.80859 23.2717C9.80859 18.1733 12.14 14.0408 12.14 14.0408C14.4714 12.3309 16.6895 12.3783 16.6895 12.3783L16.8514 12.5683C13.9371 13.3916 12.5934 14.6425 12.5934 14.6425C12.5934 14.6425 12.9495 14.4525 13.5486 14.1834C15.2809 13.4392 16.6572 13.2333 17.2238 13.1858L17.2601 13.1798C17.3414 13.1664 17.4146 13.1542 17.499 13.1542C18.4867 13.0275 19.6038 12.9959 20.7695 13.1225C22.3076 13.2966 23.9591 13.74 25.6429 14.6425C25.6429 14.6425 24.3638 13.455 21.6114 12.6316L21.8381 12.3783C21.8381 12.3783 24.0562 12.3309 26.3876 14.0408C26.3876 14.0408 28.719 18.1733 28.719 23.2717C28.719 23.2717 27.3429 25.5675 23.7648 25.6783ZM16.2362 18.2842C15.3133 18.2842 14.5847 19.0758 14.5847 20.0417C14.5847 21.0075 15.3295 21.7992 16.2362 21.7992C17.159 21.7992 17.8876 21.0075 17.8876 20.0417C17.9038 19.0758 17.159 18.2842 16.2362 18.2842ZM22.1457 18.2842C21.2228 18.2842 20.4943 19.0758 20.4943 20.0417C20.4943 21.0075 21.239 21.7992 22.1457 21.7992C23.0686 21.7992 23.7971 21.0075 23.7971 20.0417C23.7971 19.0758 23.0686 18.2842 22.1457 18.2842Z" fill="#98A2B2"/>
</svg>
