<svg width="135" height="72" viewBox="0 0 135 72" fill="none" xmlns="http://www.w3.org/2000/svg">
<path d="M85.1415 17.3274C86.3316 18.4939 87.9321 19.0768 89.9432 19.0768C91.9377 19.0768 93.47 18.5215 94.5399 17.4116C95.6095 16.3017 96.1446 14.7815 96.1446 12.8512V12.5374H94.1418V12.9235C94.1418 14.1944 93.7998 15.2362 93.1163 16.0484C92.4323 16.8609 91.3751 17.2669 89.9432 17.2669C88.5113 17.2669 87.3933 16.8288 86.5891 15.9518C85.7845 15.0754 85.3826 13.8489 85.3826 12.2722V8.31483C85.3826 6.73843 85.7845 5.51211 86.5891 4.63507C87.3935 3.75852 88.5116 3.32008 89.9432 3.32008C91.3748 3.32008 92.4323 3.72648 93.1163 4.53863C93.7998 5.3511 94.1418 6.39279 94.1418 7.66336V7.85641H96.1446V7.73586C96.1446 5.80556 95.6095 4.28547 94.5399 3.17542C93.4699 2.06536 91.9377 1.5105 89.9432 1.5105C87.9321 1.5105 86.3316 2.09376 85.1415 3.25997C83.951 4.42633 83.3558 6.12758 83.3558 8.36321V12.224C83.3558 14.4601 83.9508 16.1612 85.1415 17.3274Z" fill="#2A2343"/>
<path fill-rule="evenodd" clip-rule="evenodd" d="M100.777 18.6425C101.453 18.932 102.201 19.0769 103.022 19.0769C103.842 19.0769 104.509 18.968 105.024 18.751C105.539 18.5337 105.945 18.2604 106.243 17.9306C106.54 17.601 106.778 17.2833 106.955 16.9775H107.244V17.0982C107.244 17.5969 107.405 17.9949 107.727 18.2925C108.048 18.5904 108.475 18.7388 109.006 18.7388H110.671V17.1221H109.585C109.134 17.1221 108.909 16.8809 108.909 16.3982V11.0655C108.909 9.65031 108.491 8.55247 107.654 7.77186C106.818 6.99175 105.643 6.6017 104.131 6.6017C103.15 6.6017 102.31 6.76684 101.61 7.09629C100.91 7.42623 100.351 7.86054 99.933 8.39939C99.5145 8.93856 99.209 9.53768 99.016 10.1971L100.801 10.7762C100.994 10.004 101.356 9.38856 101.887 8.93014C102.418 8.47188 103.158 8.24251 104.107 8.24251C105.072 8.24251 105.8 8.48377 106.291 8.96647C106.781 9.44884 107.027 10.1089 107.027 10.945V11.8138H103.045C102.209 11.8138 101.453 11.9465 100.777 12.2118C100.102 12.4771 99.5708 12.8716 99.1847 13.3941C98.7986 13.9171 98.6056 14.5807 98.6056 15.3849C98.6056 16.1732 98.7986 16.8409 99.1847 17.3877C99.5708 17.9348 100.102 18.3529 100.777 18.6425ZM105.977 16.4347C105.278 17.1021 104.364 17.4359 103.239 17.4359C102.434 17.4359 101.779 17.2514 101.272 16.8812C100.765 16.5111 100.512 15.9962 100.512 15.3368C100.512 14.6774 100.757 14.1828 101.248 13.8529C101.738 13.5234 102.361 13.3583 103.118 13.3583H107.027V13.6237C107.027 14.83 106.677 15.7673 105.977 16.4347Z" fill="#2A2343"/>
<path fill-rule="evenodd" clip-rule="evenodd" d="M83.573 26.6243V43.5149L86.4928 43.5147V37.1927H90.4018C91.4309 37.1927 92.352 36.9838 93.1645 36.5654C93.9767 36.1473 94.6202 35.5521 95.0948 34.7799C95.5693 34.0077 95.8067 33.1071 95.8067 32.0774V31.7396C95.8067 30.6941 95.5734 29.7893 95.107 29.025C94.6404 28.2613 94.0049 27.6701 93.2007 27.2516C92.3961 26.8335 91.4634 26.6243 90.4018 26.6243H83.573ZM90.1121 34.5628H86.4928L86.493 29.2542H90.1123C90.9647 29.2542 91.6403 29.4797 92.1392 29.9298C92.6376 30.3805 92.8871 30.9999 92.8871 31.7878V32.0292C92.8871 32.8174 92.6336 33.4369 92.127 33.8872C91.6203 34.3377 90.9484 34.5628 90.1121 34.5628Z" fill="#A7A4FF"/>
<path fill-rule="evenodd" clip-rule="evenodd" d="M100.211 43.0926C101.119 43.5994 102.169 43.8527 103.359 43.8527C104.437 43.8527 105.33 43.6797 106.038 43.3339C106.745 42.9881 107.313 42.5699 107.739 42.079C108.165 41.5887 108.491 41.126 108.716 40.6917L106.424 39.5093C106.198 40.008 105.869 40.4544 105.435 40.8484C105 41.2429 104.332 41.4396 103.432 41.4396C102.515 41.4396 101.743 41.1583 101.115 40.5951C100.488 40.0323 100.158 39.2842 100.126 38.351H109.078V37.3618C109.078 36.1393 108.837 35.0694 108.354 34.1525C107.872 33.2355 107.196 32.5236 106.327 32.017C105.459 31.5102 104.445 31.2569 103.287 31.2569C102.113 31.2569 101.075 31.5103 100.174 32.017C99.2733 32.5238 98.5736 33.2355 98.0751 34.1525C97.5763 35.0694 97.3271 36.1552 97.3271 37.4101V37.6995C97.3271 38.9386 97.5806 40.0201 98.0873 40.945C98.5939 41.8703 99.3015 42.5858 100.211 43.0926ZM106.255 36.2519H100.15C100.279 35.4641 100.609 34.8365 101.14 34.3699C101.67 33.9035 102.378 33.6702 103.263 33.6702C104.115 33.6702 104.811 33.9035 105.35 34.3699C105.889 34.8365 106.19 35.4641 106.255 36.2519Z" fill="#A7A4FF"/>
<path fill-rule="evenodd" clip-rule="evenodd" d="M117.379 43.8527C116.188 43.8527 115.138 43.5994 114.23 43.0926C113.321 42.5858 112.613 41.8703 112.107 40.945C111.6 40.0201 111.346 38.9386 111.346 37.6995V37.4101C111.346 36.1552 111.596 35.0694 112.094 34.1525C112.593 33.2355 113.293 32.5238 114.194 32.017C115.094 31.5103 116.132 31.2569 117.306 31.2569C118.465 31.2569 119.478 31.5102 120.347 32.017C121.215 32.5236 121.891 33.2355 122.374 34.1525C122.856 35.0694 123.097 36.1393 123.097 37.3618V38.351H114.145C114.177 39.2842 114.507 40.0323 115.135 40.5951C115.762 41.1583 116.534 41.4396 117.451 41.4396C118.352 41.4396 119.019 41.2429 119.454 40.8484C119.888 40.4544 120.218 40.008 120.443 39.5093L122.735 40.6917C122.51 41.126 122.184 41.5887 121.758 42.079C121.332 42.5699 120.765 42.9881 120.057 43.3339C119.349 43.6797 118.456 43.8527 117.379 43.8527ZM114.169 36.2519H120.274C120.21 35.4641 119.908 34.8365 119.369 34.3699C118.83 33.9035 118.135 33.6702 117.282 33.6702C116.397 33.6702 115.69 33.9035 115.159 34.3699C114.628 34.8365 114.298 35.4641 114.169 36.2519Z" fill="#A7A4FF"/>
<path d="M125.945 31.5947V43.5149L128.72 43.5147V36.6136C128.72 35.7293 128.969 35.0735 129.468 34.6471C129.966 34.2211 130.617 34.0077 131.422 34.0077H132.918V31.5465H131.47C130.891 31.5465 130.392 31.6593 129.974 31.8844C129.556 32.1098 129.258 32.4716 129.081 32.9702H128.671V31.5947H125.945Z" fill="#A7A4FF"/>
<path fill-rule="evenodd" clip-rule="evenodd" d="M83.0424 66.4813V68.291L91.4877 68.2913C92.4687 68.2913 93.3415 68.1186 94.1058 67.7725C94.8697 67.4267 95.4729 66.92 95.9155 66.2524C96.3579 65.5851 96.5792 64.7924 96.5792 63.8755V63.6341C96.5792 62.8461 96.4302 62.1946 96.1328 61.6797C95.8351 61.1651 95.4693 60.767 95.035 60.4853C94.6007 60.2039 94.1822 60.0148 93.7801 59.9182V59.5803C94.182 59.4517 94.5922 59.2466 95.0107 58.965C95.4288 58.6838 95.7906 58.2893 96.0965 57.7826C96.4018 57.2758 96.5549 56.6285 96.5549 55.8403V55.6472C96.5549 54.7946 96.3415 54.0509 95.9155 53.4151C95.4891 52.78 94.8939 52.2854 94.13 51.9311C93.3658 51.5774 92.4929 51.4004 91.5119 51.4004H83.0424V53.21H85.4071V66.4813H83.0424ZM91.343 58.8564H87.434L87.4339 53.2341H91.3428C92.3241 53.2341 93.1002 53.4795 93.6714 53.9701C94.2425 54.4609 94.5282 55.1161 94.5282 55.9366V56.1778C94.5282 56.9824 94.2385 57.6299 93.6594 58.1203C93.0804 58.6113 92.3082 58.8564 91.343 58.8564ZM91.2705 66.4571H87.434V60.6904H91.2705C92.3323 60.6904 93.1445 60.9399 93.7078 61.4384C94.2706 61.9372 94.5521 62.6127 94.5521 63.4652V63.6823C94.5521 64.5351 94.2706 65.2105 93.7078 65.7091C93.1445 66.2078 92.3323 66.4571 91.2705 66.4571Z" fill="#2A2343"/>
<path fill-rule="evenodd" clip-rule="evenodd" d="M101.236 68.1945C101.912 68.484 102.66 68.6289 103.48 68.6289C104.301 68.6289 104.968 68.52 105.483 68.303C105.998 68.0857 106.404 67.8124 106.702 67.4826C106.999 67.153 107.236 66.8353 107.413 66.5295H107.703V66.6502C107.703 67.1489 107.864 67.5469 108.185 67.8444C108.507 68.1424 108.934 68.2908 109.464 68.2908H111.129V66.6741H110.044C109.593 66.6741 109.368 66.4329 109.368 65.9502V60.6175C109.368 59.2023 108.949 58.1045 108.113 57.3239C107.277 56.5437 106.102 56.1537 104.59 56.1537C103.609 56.1537 102.768 56.3188 102.069 56.6483C101.369 56.9782 100.81 57.4125 100.392 57.9514C99.9732 58.4906 99.6677 59.0897 99.4747 59.7491L101.26 60.3282C101.453 59.556 101.815 58.9406 102.346 58.4821C102.877 58.0239 103.616 57.7945 104.566 57.7945C105.531 57.7945 106.259 58.0358 106.75 58.5185C107.24 59.0008 107.485 59.6609 107.485 60.497V61.3658H103.504C102.668 61.3658 101.912 61.4985 101.236 61.7638C100.56 62.0291 100.03 62.4236 99.6434 62.9461C99.2573 63.4691 99.0643 64.1327 99.0643 64.9369C99.0643 65.7252 99.2573 66.3929 99.6434 66.9397C100.03 67.4868 100.56 67.9049 101.236 68.1945ZM106.436 65.9867C105.736 66.6541 104.823 66.9879 103.697 66.9879C102.893 66.9879 102.237 66.8034 101.731 66.4332C101.224 66.0631 100.971 65.5482 100.971 64.8888C100.971 64.2294 101.216 63.7348 101.706 63.4049C102.197 63.0754 102.82 62.9103 103.576 62.9103H107.485V63.1757C107.485 64.382 107.136 65.3193 106.436 65.9867Z" fill="#2A2343"/>
<path d="M113.735 68.291V56.4916H115.593V57.9395H115.931C116.14 57.4249 116.462 57.0468 116.896 56.8055C117.33 56.5641 117.901 56.4435 118.609 56.4435H120.009V58.1809H118.489C117.636 58.1809 116.948 58.4184 116.426 58.8928C115.903 59.3675 115.641 60.1035 115.641 61.1007V68.2913L113.735 68.291Z" fill="#2A2343"/>
<path fill-rule="evenodd" clip-rule="evenodd" d="M123.797 68.1945C124.473 68.484 125.221 68.6289 126.041 68.6289C126.862 68.6289 127.529 68.52 128.044 68.303C128.559 68.0857 128.965 67.8124 129.263 67.4826C129.56 67.153 129.797 66.8353 129.974 66.5295H130.264V66.6502C130.264 67.1489 130.425 67.5469 130.747 67.8444C131.068 68.1424 131.495 68.2908 132.026 68.2908H133.691V66.6741H132.605C132.154 66.6741 131.929 66.4329 131.929 65.9502V60.6175C131.929 59.2023 131.51 58.1045 130.674 57.3239C129.838 56.5437 128.663 56.1537 127.151 56.1537C126.17 56.1537 125.329 56.3188 124.63 56.6483C123.93 56.9782 123.371 57.4125 122.953 57.9514C122.534 58.4906 122.229 59.0897 122.036 59.7491L123.821 60.3282C124.014 59.556 124.376 58.9406 124.907 58.4821C125.438 58.0239 126.178 57.7945 127.127 57.7945C128.092 57.7945 128.82 58.0358 129.311 58.5185C129.801 59.0008 130.047 59.6609 130.047 60.497V61.3658H126.065C125.229 61.3658 124.473 61.4985 123.797 61.7638C123.122 62.0291 122.591 62.4236 122.205 62.9461C121.818 63.4691 121.625 64.1327 121.625 64.9369C121.625 65.7252 121.818 66.3929 122.205 66.9397C122.591 67.4868 123.122 67.9049 123.797 68.1945ZM128.997 65.9867C128.297 66.6541 127.384 66.9879 126.258 66.9879C125.454 66.9879 124.799 66.8034 124.292 66.4332C123.785 66.0631 123.532 65.5482 123.532 64.8888C123.532 64.2294 123.777 63.7348 124.268 63.4049C124.758 63.0754 125.381 62.9103 126.138 62.9103H130.047V63.1757C130.047 64.382 129.697 65.3193 128.997 65.9867Z" fill="#2A2343"/>
<path d="M65.8528 33.6282L65.0445 34.4197C64.9946 34.4686 64.945 34.5187 64.896 34.57C64.0383 35.4664 63.5055 36.6146 63.3227 37.8298L63.147 38.9979C63.0783 39.4563 62.7438 39.8298 62.2634 39.7887C62.0504 39.7705 61.8659 39.6672 61.7346 39.5161C61.5584 39.3131 61.5084 39.0291 61.5698 38.7675L61.6783 38.3056C61.824 37.6852 61.8462 37.0408 61.732 36.4138C61.7315 36.4115 61.7311 36.4092 61.7306 36.4068C61.5568 35.4619 60.8746 34.6825 59.9609 34.3337L57.5926 33.4297C57.1666 33.2729 57.0561 32.7588 57.2434 32.3824C57.4546 31.9579 57.8978 31.8946 58.3901 32.0466L60.5225 32.8627C62.7786 33.722 64.0564 33.1911 65.2646 32.0084C64.8052 31.2917 64.1137 30.7193 63.2605 30.4084C54.9235 27.3707 30.1496 18.3418 29.6426 18.1605C29.2126 12.2872 21.1705 14.4061 23.573 19.4051L21.0274 20.7419C16.7909 14.9094 9.55657 23.2429 16.0792 26.4069C11.6791 34.93 7.85896 43.7875 4.67114 52.933C10.7954 62.6426 21.1378 71.0088 34.7643 71.7747C45.0252 72.3514 51.8384 70.139 51.8384 70.139L49.8208 52.2019L54.7597 54.9941C55.7502 55.5541 57.0163 55.3417 57.7419 54.476C62.381 48.9419 65.3528 41.9545 65.8782 34.4014C65.8964 34.1395 65.9392 33.9288 65.8528 33.6279V33.6282ZM34.9194 29.6656C34.7115 30.2588 34.1064 30.6155 33.4918 30.5468C33.3982 30.5364 33.3042 30.5159 33.2112 30.4857L28.1811 28.8057C27.4808 28.5717 27.1031 27.8187 27.3419 27.1329C27.5498 26.5381 28.1547 26.183 28.7679 26.2514C28.8615 26.2618 28.9555 26.2823 29.0484 26.3125L34.0802 27.9926C34.7807 28.2266 35.1584 28.9798 34.9194 29.6656Z" fill="#2A2343"/>
<path d="M34.9193 29.6658C34.7114 30.2589 34.1063 30.6156 33.4917 30.5469C33.3981 30.5365 33.3041 30.5161 33.2111 30.4858L28.181 28.8059C27.4807 28.5719 27.103 27.8189 27.3418 27.133C27.5499 26.5382 28.1546 26.1832 28.7678 26.2515C28.8614 26.2619 28.9554 26.2824 29.0483 26.3126L34.0801 27.9928C34.7806 28.2268 35.1583 28.9798 34.9193 29.6656V29.6658Z" fill="white"/>
<path d="M36.3704 0.00514809C9.01819 -0.45509 -8.9828 30.0396 4.67094 52.9334C7.85876 43.7879 11.6789 34.9306 16.079 26.4073C9.55654 23.2433 16.7909 14.9096 21.0272 20.7423L23.5728 19.4055C21.1703 14.4065 29.2124 12.2876 29.6424 18.1609C30.1494 18.3422 54.9233 27.3711 63.2603 30.4088C64.1135 30.7198 64.805 31.2921 65.2644 32.0088C64.0563 33.1917 62.7784 33.7225 60.5223 32.8631L58.3899 32.047C57.8976 31.895 57.4542 31.9583 57.2432 32.3829C57.0561 32.7592 57.1664 33.2733 57.5924 33.4302L59.9607 34.3341C60.8742 34.6829 61.5564 35.4623 61.7304 36.4073C61.7309 36.4096 61.7313 36.4119 61.7318 36.4142C61.846 37.0412 61.8239 37.6856 61.6781 38.306L61.5696 38.7679C61.5082 39.0295 61.5582 39.3135 61.7344 39.5165C61.8657 39.6676 62.0502 39.7709 62.2632 39.7891C62.7437 39.8302 63.0781 39.4602 63.1468 38.9983L63.3225 37.8302C63.5053 36.615 64.0381 35.4668 64.8958 34.5704C64.9449 34.5191 64.9944 34.469 65.0443 34.4202L65.8526 33.6287C65.8851 33.882 65.8964 34.1403 65.878 34.4022C65.3526 41.9551 62.3808 48.9427 57.7417 54.4768C57.0161 55.3424 55.75 55.5546 54.7595 54.9948L49.8206 52.2027L51.8382 70.1398L69.8557 63.5296L63.0563 59.6854C84.4656 37.5434 67.68 -0.337678 36.3704 0.00514809Z" fill="#A7A4FF"/>
</svg>
