<svg width="40" height="40" viewBox="0 0 40 40" fill="none" xmlns="http://www.w3.org/2000/svg">
<path fill-rule="evenodd" clip-rule="evenodd" d="M13.8554 5H26.1446C27.7711 5.18068 28.8554 5.36141 29.759 5.72288C30.8434 6.26503 31.5662 6.6265 32.4699 7.53011C33.3735 8.43373 33.9157 9.33734 34.2771 10.241C34.6386 11.1446 35 12.2289 35 13.8554V26.1446C34.8193 27.7711 34.6386 28.8554 34.2771 29.759C33.7349 30.8434 33.3735 31.5663 32.4699 32.4699C31.5662 33.3735 30.6626 33.9157 29.759 34.2771C28.8554 34.6386 27.7711 35 26.1446 35H13.8554C12.2289 34.8193 11.1446 34.6386 10.241 34.2771C9.15663 33.735 8.43375 33.3735 7.53014 32.4699C6.62652 31.5663 6.08435 30.6627 5.72291 29.759C5.36144 28.8554 5 27.7711 5 26.1446V13.8554C5.18073 12.2289 5.36144 11.1446 5.72291 10.241C6.26505 9.15661 6.62652 8.43373 7.53014 7.53011C8.43375 6.6265 9.33736 6.08429 10.241 5.72288C11.1446 5.36141 12.2289 5 13.8554 5ZM29.759 12.0482C29.759 13.0463 28.9499 13.8554 27.9518 13.8554C26.9537 13.8554 26.1446 13.0463 26.1446 12.0482C26.1446 11.0501 26.9537 10.241 27.9518 10.241C28.9499 10.241 29.759 11.0501 29.759 12.0482ZM20 12.229C15.6627 12.229 12.2289 15.6627 12.2289 20C12.2289 24.3374 15.6627 27.7711 20 27.7711C24.3373 27.7711 27.7711 24.3374 27.7711 20C27.7711 15.6627 24.3373 12.229 20 12.229ZM20 25.0602C17.2891 25.0602 14.9397 22.8916 14.9397 20C14.9397 17.2892 17.1084 14.9398 20 14.9398C22.7108 14.9398 25.0602 17.1084 25.0602 20C25.0602 22.7109 22.7108 25.0602 20 25.0602Z" fill="#98A2B2"/>
</svg>
