<svg width="40" height="40" viewBox="0 0 40 40" fill="none" xmlns="http://www.w3.org/2000/svg">
<path fill-rule="evenodd" clip-rule="evenodd" d="M5.37977 35V14.9375H11.8355V35H5.37977ZM8.60759 12.125C6.51897 12.125 5 10.625 5 8.56249C5 6.49998 6.70885 5 8.60759 5C10.6962 5 12.2152 6.49998 12.2152 8.56249C12.2152 10.625 10.6962 12.125 8.60759 12.125ZM35 35H28.9241V24.125C28.9241 20.9375 27.5949 20 25.6962 20C23.7975 20 21.8987 21.5 21.8987 24.3125V35H15.443V14.9375H21.519V17.75C22.0886 16.4375 24.3671 14.375 27.5949 14.375C31.2025 14.375 35 16.4375 35 22.625V35Z" fill="#98A2B2"/>
</svg>
