<svg width="64" height="64" viewBox="0 0 64 64" fill="none" xmlns="http://www.w3.org/2000/svg">
<rect width="64" height="64" rx="14" fill="#EBEBFF"/>
<path fill-rule="evenodd" clip-rule="evenodd" d="M32.0056 20C30.3955 20 28.8411 20.6631 27.687 21.8604C26.5314 23.0593 25.8739 24.6956 25.8739 26.4116V28.4058H44V46.6666H20V28.4058H23.2073V26.4116C23.2073 24.0194 24.1227 21.7157 25.767 20.0098C27.4129 18.3022 29.656 17.3333 32.0056 17.3333C33.168 17.3333 34.3177 17.5709 35.3888 18.0312C36.4597 18.4914 37.4295 19.1646 38.2441 20.0098C39.0587 20.8549 39.7023 21.8555 40.1406 22.9533C40.5789 24.0511 40.8039 25.2261 40.8039 26.4116H38.1372C38.1372 25.5629 37.9761 24.7236 37.664 23.9421C37.352 23.1606 36.896 22.4537 36.3241 21.8604C35.7524 21.2672 35.0763 20.7994 34.3359 20.4812C33.5955 20.163 32.8039 20 32.0056 20ZM22.6667 31.0724V44H41.3333V31.0724H22.6667Z" fill="#7B76FF"/>
</svg>
