<svg width="165" height="40" viewBox="0 0 165 40" fill="none" xmlns="http://www.w3.org/2000/svg">
<path d="M48.5709 25.4848C49.6309 26.5307 51.0478 27.0532 52.8218 27.0532C54.5811 27.0532 55.9261 26.5594 56.8563 25.5714C57.7866 24.5836 58.2517 23.2388 58.2517 21.5368V21.2556H56.8672V21.58C56.8672 22.8207 56.5389 23.8337 55.8829 24.6195C55.2265 25.4058 54.2063 25.7986 52.8218 25.7986C51.4228 25.7986 50.3303 25.3733 49.5444 24.5222C48.7582 23.6714 48.3654 22.4744 48.3654 20.9311V17.4266C48.3654 15.8835 48.7583 14.6866 49.5444 13.8355C50.3304 12.9847 51.4228 12.5591 52.8218 12.5591C54.2063 12.5591 55.2265 12.9523 55.8829 13.7382C56.5389 14.5244 56.8672 15.5374 56.8672 16.7777V16.929H58.2517V16.8209C58.2517 15.1192 57.7866 13.7744 56.8563 12.7863C55.9261 11.7987 54.5811 11.3044 52.8218 11.3044C51.0478 11.3044 49.6309 11.8274 48.5709 12.8729C47.5108 13.9187 46.9808 15.4509 46.9808 17.4698V20.8878C46.9808 22.907 47.5108 24.4393 48.5709 25.4848Z" fill="#2A2343"/>
<path fill-rule="evenodd" clip-rule="evenodd" d="M62.5888 26.6746C63.1872 26.9267 63.8543 27.0532 64.5899 27.0532L64.59 27.0533C65.3109 27.0533 65.9095 26.9595 66.3855 26.7721C66.8614 26.5849 67.247 26.3395 67.5428 26.0366C67.8382 25.7337 68.0799 25.4238 68.2675 25.1064H68.4838V25.2577C68.4838 25.7195 68.6136 26.0835 68.8731 26.3502C69.1328 26.6173 69.486 26.7504 69.9332 26.7504H71.3177V25.6254H70.301C69.897 25.6254 69.6952 25.4092 69.6952 24.9765V19.8711C69.6952 18.631 69.3309 17.6646 68.6028 16.9723C67.8743 16.28 66.8467 15.934 65.52 15.934C64.6547 15.934 63.9117 16.082 63.2918 16.3775C62.6716 16.6732 62.174 17.0697 61.7991 17.5673C61.4239 18.0648 61.1502 18.6239 60.9771 19.2438L62.2318 19.6116C62.4191 18.8474 62.7834 18.2378 63.3242 17.7836C63.8651 17.3293 64.5969 17.1021 65.52 17.1021C66.4573 17.1021 67.1712 17.34 67.6617 17.816C68.1518 18.2919 68.3973 18.9555 68.3973 19.8062V20.6499H64.5466C63.8253 20.6499 63.1692 20.7654 62.578 20.9959C61.9865 21.2267 61.518 21.5729 61.1718 22.0343C60.8258 22.4961 60.6527 23.0801 60.6527 23.7865C60.6527 24.4788 60.8258 25.0703 61.1718 25.5605C61.518 26.051 61.9902 26.4224 62.5888 26.6746ZM67.3696 24.8791C66.6846 25.5498 65.7868 25.8851 64.6763 25.8851C63.883 25.8851 63.2303 25.7012 62.7185 25.3334C62.2065 24.9657 61.9506 24.4429 61.9506 23.7651C61.9506 23.0873 62.1994 22.586 62.697 22.2615C63.1945 21.9371 63.8181 21.7748 64.5682 21.7748H68.3972V22.0343C68.3972 23.2603 68.0545 24.2085 67.3696 24.8791Z" fill="#2A2343"/>
<path fill-rule="evenodd" clip-rule="evenodd" d="M73.3727 11.6073V26.7503H75.9903V21.0825H79.4948C80.4176 21.0825 81.2434 20.8953 81.9718 20.5201C82.6998 20.1452 83.2768 19.6115 83.7024 18.9192C84.1276 18.2269 84.3406 17.4195 84.3406 16.4964V16.1934C84.3406 15.2562 84.1314 14.445 83.7132 13.7598C83.2947 13.075 82.7252 12.545 82.0041 12.1698C81.2828 11.7949 80.4465 11.6073 79.4947 11.6073H73.3727ZM79.2352 18.7245H75.9901V13.9653H79.2351C79.9993 13.9653 80.6051 14.1675 81.0522 14.5711C81.4992 14.975 81.7229 15.5303 81.7229 16.2368V16.4531C81.7229 17.1599 81.4957 17.7152 81.0415 18.1188C80.5872 18.5228 79.9849 18.7245 79.2352 18.7245Z" fill="#A4A1FF"/>
<path fill-rule="evenodd" clip-rule="evenodd" d="M88.2888 26.3717C89.1033 26.826 90.0444 27.0532 91.1119 27.0532L91.1119 27.0533C92.078 27.0533 92.8785 26.8982 93.5132 26.5882C94.1476 26.2782 94.6561 25.9033 95.0384 25.4633C95.4203 25.0235 95.7124 24.6088 95.9145 24.2193L93.8594 23.1593C93.6573 23.6065 93.3619 24.0067 92.9724 24.36C92.583 24.7134 91.9845 24.89 91.1769 24.89C90.3549 24.89 89.6626 24.6378 89.1001 24.1328C88.5376 23.6281 88.2419 22.9575 88.2132 22.1209H96.239V21.2339C96.239 20.1381 96.0227 19.1789 95.59 18.3567C95.1574 17.5347 94.5516 16.8966 93.7728 16.4422C92.9941 15.988 92.0854 15.7608 91.0471 15.7608C89.9941 15.7608 89.064 15.988 88.2564 16.4422C87.4485 16.8966 86.8211 17.5347 86.3743 18.3567C85.9271 19.1789 85.7036 20.1522 85.7036 21.2772V21.5368C85.7036 22.6476 85.9308 23.6173 86.3851 24.4465C86.8394 25.2759 87.4739 25.9175 88.2888 26.3717ZM93.7078 20.2389H88.2347C88.35 19.5323 88.6457 18.97 89.1217 18.5514C89.5976 18.1333 90.232 17.9241 91.0253 17.9241C91.7896 17.9241 92.4131 18.1333 92.8965 18.5514C93.3797 18.97 93.65 19.5324 93.7078 20.2389Z" fill="#A4A1FF"/>
<path fill-rule="evenodd" clip-rule="evenodd" d="M103.68 27.0532C102.613 27.0532 101.672 26.826 100.857 26.3717C100.042 25.9175 99.408 25.2759 98.9537 24.4465C98.4995 23.6173 98.2722 22.6476 98.2722 21.5368V21.2772C98.2722 20.1522 98.4957 19.1789 98.943 18.3567C99.3897 17.5347 100.017 16.8966 100.825 16.4422C101.633 15.988 102.563 15.7608 103.616 15.7608C104.654 15.7608 105.563 15.988 106.341 16.4422C107.12 16.8966 107.726 17.5347 108.159 18.3567C108.591 19.1789 108.808 20.1381 108.808 21.2339V22.1209H100.782C100.81 22.9575 101.106 23.6281 101.669 24.1328C102.231 24.6378 102.924 24.89 103.746 24.89C104.553 24.89 105.152 24.7134 105.541 24.36C105.93 24.0067 106.226 23.6065 106.428 23.1593L108.483 24.2193C108.281 24.6088 107.989 25.0235 107.607 25.4633C107.225 25.9033 106.716 26.2782 106.082 26.5882C105.447 26.8982 104.647 27.0533 103.681 27.0533L103.68 27.0532ZM100.803 20.2389H106.276C106.219 19.5324 105.948 18.97 105.465 18.5514C104.982 18.1333 104.358 17.9241 103.594 17.9241C102.801 17.9241 102.166 18.1333 101.69 18.5514C101.214 18.97 100.919 19.5323 100.803 20.2389Z" fill="#A4A1FF"/>
<path d="M111.36 16.0637V26.7503H113.848V20.5634C113.848 19.7703 114.071 19.1825 114.518 18.8002C114.965 18.4183 115.549 18.2269 116.271 18.2269H117.612V16.0204H116.314C115.795 16.0204 115.348 16.1215 114.973 16.3233C114.598 16.5254 114.331 16.8499 114.172 17.2967H113.805V16.0637H111.36Z" fill="#A4A1FF"/>
<path fill-rule="evenodd" clip-rule="evenodd" d="M119.277 26.7503V25.4956H121.441V12.8621H119.277V11.6073H126.784C127.649 11.6073 128.421 11.7661 129.099 12.0833C129.776 12.4007 130.306 12.8442 130.689 13.4137C131.071 13.9836 131.262 14.6434 131.262 15.3931V15.5662C131.262 16.273 131.125 16.857 130.851 17.3185C130.577 17.7802 130.245 18.1406 129.856 18.4001C129.467 18.6598 129.084 18.8474 128.709 18.9626V19.2223C129.084 19.3087 129.47 19.4856 129.867 19.7522C130.263 20.0192 130.595 20.3833 130.862 20.8446C131.129 21.3064 131.262 21.8904 131.262 22.5969V22.8133C131.262 23.6353 131.064 24.3421 130.667 24.9333C130.27 25.5247 129.729 25.9753 129.045 26.2853C128.359 26.5956 127.584 26.7503 126.719 26.7503H119.277ZM126.676 18.4867H122.825V12.8621H126.676C127.671 12.8621 128.453 13.1109 129.023 13.6084C129.593 14.106 129.878 14.7587 129.878 15.5662V15.7825C129.878 16.5904 129.593 17.2427 129.023 17.7403C128.453 18.2379 127.671 18.4867 126.676 18.4867ZM126.589 25.4956H122.825V19.7413H126.589C127.671 19.7413 128.489 19.9938 129.045 20.4985C129.6 21.0034 129.878 21.6812 129.878 22.532V22.705C129.878 23.5561 129.6 24.2339 129.045 24.7385C128.489 25.2435 127.671 25.4956 126.589 25.4956Z" fill="#2A2343"/>
<path fill-rule="evenodd" clip-rule="evenodd" d="M135.642 26.6747C136.241 26.9268 136.908 27.0533 137.644 27.0533L137.644 27.0534C138.365 27.0534 138.963 26.9596 139.439 26.7723C139.915 26.585 140.301 26.3396 140.596 26.0367C140.892 25.7338 141.134 25.4239 141.321 25.1065H141.537V25.2578C141.537 25.7196 141.667 26.0836 141.927 26.3503C142.186 26.6174 142.54 26.7505 142.987 26.7505H144.371V25.6256H143.355C142.951 25.6256 142.749 25.4093 142.749 24.9766V19.8712C142.749 18.6311 142.385 17.6647 141.656 16.9724C140.928 16.2801 139.9 15.9341 138.574 15.9341C137.708 15.9341 136.965 16.0821 136.345 16.3776C135.725 16.6734 135.228 17.0698 134.853 17.5674C134.478 18.0649 134.204 18.624 134.031 19.2439L135.285 19.6117C135.473 18.8475 135.837 18.2379 136.378 17.7837C136.919 17.3294 137.65 17.1023 138.574 17.1023C139.511 17.1023 140.225 17.3401 140.715 17.8161C141.205 18.292 141.451 18.9556 141.451 19.8063V20.65H137.6C136.879 20.65 136.223 20.7655 135.632 20.996C135.04 21.2268 134.572 21.573 134.225 22.0344C133.879 22.4962 133.706 23.0802 133.706 23.7867C133.706 24.4789 133.879 25.0704 134.225 25.5606C134.572 26.0511 135.044 26.4225 135.642 26.6747ZM140.423 24.8792C139.738 25.5499 138.84 25.8852 137.73 25.8852C136.937 25.8852 136.284 25.7013 135.772 25.3335C135.26 24.9658 135.004 24.443 135.004 23.7652C135.004 23.0874 135.253 22.5861 135.751 22.2616C136.248 21.9372 136.872 21.7749 137.622 21.7749H141.451V22.0345C141.451 23.2604 141.108 24.2086 140.423 24.8792Z" fill="#2A2343"/>
<path d="M146.837 26.7504V16.2367H148.092V17.5564H148.352C148.553 17.0804 148.853 16.7344 149.249 16.518C149.646 16.3018 150.198 16.1935 150.904 16.1935H152.137V17.405H150.753C149.96 17.405 149.325 17.6288 148.849 18.0756C148.373 18.5229 148.135 19.2223 148.135 20.1741V26.7505L146.837 26.7504Z" fill="#2A2343"/>
<path fill-rule="evenodd" clip-rule="evenodd" d="M155.631 26.6747C156.229 26.9268 156.896 27.0533 157.632 27.0533L157.632 27.0534C158.353 27.0534 158.952 26.9596 159.428 26.7723C159.903 26.585 160.289 26.3396 160.585 26.0367C160.88 25.7338 161.122 25.4239 161.31 25.1065H161.526V25.2578C161.526 25.7196 161.656 26.0836 161.915 26.3503C162.175 26.6174 162.528 26.7505 162.975 26.7505H164.36V25.6256H163.343C162.939 25.6256 162.737 25.4093 162.737 24.9766V19.8712C162.737 18.6311 162.373 17.6647 161.645 16.9724C160.916 16.2801 159.889 15.9341 158.562 15.9341C157.697 15.9341 156.954 16.0821 156.334 16.3776C155.714 16.6734 155.216 17.0698 154.841 17.5674C154.466 18.0649 154.192 18.624 154.019 19.2439L155.274 19.6117C155.461 18.8475 155.825 18.2379 156.366 17.7837C156.907 17.3294 157.639 17.1023 158.562 17.1023C159.499 17.1023 160.213 17.3401 160.704 17.8161C161.194 18.292 161.439 18.9556 161.439 19.8063V20.65H157.589C156.867 20.65 156.211 20.7655 155.62 20.996C155.029 21.2268 154.56 21.573 154.214 22.0344C153.868 22.4962 153.695 23.0802 153.695 23.7867C153.695 24.4789 153.868 25.0704 154.214 25.5606C154.56 26.0511 155.032 26.4225 155.631 26.6747ZM160.412 24.8792C159.727 25.5499 158.829 25.8852 157.718 25.8852C156.925 25.8852 156.272 25.7013 155.761 25.3335C155.249 24.9658 154.993 24.443 154.993 23.7652C154.993 23.0874 155.241 22.5861 155.739 22.2616C156.237 21.9372 156.86 21.7749 157.61 21.7749H161.439V22.0345C161.439 23.2604 161.097 24.2086 160.412 24.8792Z" fill="#2A2343"/>
<path d="M36.6767 18.6824L36.2276 19.1222C36.1999 19.1493 36.1724 19.1771 36.1451 19.2056C35.6686 19.7036 35.3727 20.3415 35.2711 21.0167L35.1735 21.6656C35.1353 21.9202 34.9495 22.1278 34.6826 22.1049C34.5642 22.0948 34.4618 22.0374 34.3888 21.9534C34.2909 21.8407 34.2631 21.6829 34.2973 21.5376L34.3575 21.281C34.4385 20.9363 34.4508 20.5783 34.3874 20.23C34.3871 20.2287 34.3869 20.2274 34.3866 20.2261C34.29 19.7012 33.911 19.2681 33.4034 19.0744L32.0877 18.5722C31.851 18.485 31.7896 18.1994 31.8937 17.9903C32.011 17.7545 32.2573 17.7193 32.5307 17.8037L33.7154 18.2571C34.9688 18.7345 35.6787 18.4396 36.3499 17.7825C36.0947 17.3844 35.7106 17.0664 35.2365 16.8936C30.6049 15.206 16.8416 10.19 16.5599 10.0892C16.321 6.82629 11.8532 8.00345 13.1879 10.7807L11.7737 11.5234C9.4201 8.28308 5.40102 12.9128 9.02469 14.6706C6.58019 19.4056 4.4579 24.3265 2.68689 29.4073C6.08928 34.8015 11.8351 39.4494 19.4053 39.8749C25.1058 40.1953 28.8909 38.9662 28.8909 38.9662L27.77 29.0012L30.5139 30.5523C31.0641 30.8634 31.7675 30.7455 32.1707 30.2645C34.7479 27.1901 36.3989 23.3081 36.6908 19.112C36.7009 18.9665 36.7247 18.8494 36.6767 18.6823V18.6824ZM19.4915 16.481C19.376 16.8105 19.0398 17.0087 18.6984 16.9705C18.6463 16.9647 18.5941 16.9534 18.5425 16.9366L15.748 16.0033C15.3589 15.8733 15.1491 15.4549 15.2818 15.0739C15.3973 14.7434 15.7333 14.5462 16.074 14.5842C16.126 14.59 16.1782 14.6013 16.2298 14.6181L19.0252 15.5515C19.4144 15.6815 19.6242 16.1 19.4915 16.481Z" fill="#2A2343"/>
<path d="M19.4915 16.481C19.376 16.8106 19.0398 17.0087 18.6984 16.9706C18.6463 16.9648 18.5941 16.9534 18.5425 16.9366L15.748 16.0033C15.3589 15.8733 15.1491 15.455 15.2818 15.074C15.3974 14.7435 15.7333 14.5463 16.074 14.5842C16.126 14.59 16.1782 14.6014 16.2298 14.6182L19.0252 15.5516C19.4144 15.6816 19.6242 16.0999 19.4915 16.4809V16.481Z" fill="white"/>
<path d="M20.2976 0.00286005C5.1019 -0.252828 -4.89865 16.6886 2.68677 29.4074C4.45778 24.3266 6.58007 19.4059 9.02456 14.6707C5.40099 12.913 9.42007 8.28314 11.7736 11.5235L13.1878 10.7808C11.8531 8.00359 16.3209 6.82644 16.5598 10.0894C16.8414 10.1901 30.6047 15.2062 35.2364 16.8938C35.7104 17.0665 36.0946 17.3845 36.3498 17.7827C35.6786 18.4398 34.9687 18.7347 33.7153 18.2573L32.5306 17.8039C32.2571 17.7195 32.0108 17.7546 31.8936 17.9905C31.7896 18.1996 31.8509 18.4852 32.0876 18.5723L33.4033 19.0745C33.9108 19.2683 34.2898 19.7013 34.3865 20.2263C34.3868 20.2275 34.387 20.2288 34.3872 20.2301C34.4507 20.5785 34.4384 20.9364 34.3574 21.2811L34.2971 21.5377C34.263 21.683 34.2908 21.8408 34.3887 21.9536C34.4616 22.0375 34.5641 22.095 34.6825 22.1051C34.9494 22.1279 35.1352 21.9223 35.1734 21.6657L35.271 21.0168C35.3725 20.3417 35.6685 19.7038 36.145 19.2058C36.1723 19.1773 36.1998 19.1495 36.2275 19.1223L36.6766 18.6826C36.6947 18.8233 36.7009 18.9668 36.6907 19.1123C36.3988 23.3084 34.7478 27.1904 32.1705 30.2649C31.7674 30.7458 31.064 30.8637 30.5137 30.5527L27.7699 29.0015L28.8908 38.9665L38.9005 35.2942L35.1231 33.1586C47.0171 20.8574 37.6918 -0.187599 20.2976 0.00286005Z" fill="#A4A1FF"/>
</svg>
