<svg width="20" height="20" viewBox="0 0 20 20" fill="none" xmlns="http://www.w3.org/2000/svg">
<path d="M18.9379 0.910156L11.1948 6.65374L12.6267 3.2651L18.9379 0.910156Z" fill="#E2761B"/>
<path fill-rule="evenodd" clip-rule="evenodd" d="M18.974 0.890452C18.9838 0.908511 18.9789 0.931046 18.9624 0.943304L11.2193 6.68688C11.2043 6.69798 11.1838 6.69771 11.1691 6.68621C11.1545 6.67472 11.1493 6.65485 11.1566 6.63771L12.5885 3.24907C12.5929 3.23861 12.6014 3.23043 12.6121 3.22646L18.9233 0.871513C18.9425 0.864318 18.9642 0.872393 18.974 0.890452ZM12.6577 3.29755L11.2916 6.53042L18.6787 1.05086L12.6577 3.29755Z" fill="#E2761B"/>
<path d="M1.06271 0.910156L8.74353 6.70814L7.38168 3.2651L1.06271 0.910156ZM16.152 14.2238L14.0897 17.3792L18.5021 18.5917L19.7706 14.2937L16.152 14.2238ZM0.245605 14.2937L1.50629 18.5917L5.91867 17.3792L3.85644 14.2238L0.245605 14.2937Z" fill="#E4761B"/>
<path fill-rule="evenodd" clip-rule="evenodd" d="M1.02631 0.890307C1.03619 0.872348 1.05776 0.864344 1.07698 0.871507L7.39595 3.22645C7.40691 3.23054 7.41563 3.23908 7.41993 3.24996L8.78178 6.693C8.78858 6.7102 8.7831 6.72982 8.76835 6.74101C8.75361 6.75221 8.73321 6.75223 8.71843 6.74108L1.03762 0.943096C1.02125 0.930742 1.01644 0.908267 1.02631 0.890307ZM1.31315 1.04762L8.65083 6.58659L7.34982 3.29736L1.31315 1.04762ZM3.85546 14.1825C3.8697 14.1822 3.88308 14.1893 3.89087 14.2012L5.95309 17.3567C5.9603 17.3677 5.9618 17.3815 5.95713 17.3939C5.95246 17.4062 5.94217 17.4155 5.92945 17.419L1.51707 18.6315C1.49532 18.6375 1.47279 18.6249 1.46645 18.6033L0.205768 14.3053C0.202149 14.293 0.204495 14.2797 0.212113 14.2693C0.219731 14.2589 0.231751 14.2527 0.244623 14.2525L3.85546 14.1825ZM16.1172 14.2012C16.125 14.1893 16.1384 14.1822 16.1526 14.1825L19.7712 14.2525C19.7841 14.2527 19.7961 14.259 19.8037 14.2693C19.8114 14.2797 19.8137 14.293 19.81 14.3054L18.5416 18.6034C18.5352 18.6249 18.5127 18.6375 18.491 18.6315L14.0786 17.419C14.0659 17.4155 14.0556 17.4062 14.0509 17.3939C14.0462 17.3815 14.0477 17.3677 14.055 17.3567L16.1172 14.2012ZM0.300279 14.3339L1.53433 18.5411L5.85294 17.3545L3.83417 14.2655L0.300279 14.3339ZM16.1739 14.2655L14.1551 17.3545L18.4738 18.5412L19.7155 14.3339L16.1739 14.2655Z" fill="#E4761B"/>
<path d="M5.66949 8.89207L4.43994 10.7496L8.8212 10.9439L8.66556 6.24178L5.66949 8.89207ZM14.3308 8.89207L11.2959 6.18738L11.1947 10.9439L15.5682 10.7496L14.3308 8.89207ZM5.91852 17.3792L8.54883 16.0968L6.27649 14.3248L5.91852 17.3792ZM11.4515 16.0968L14.0896 17.3792L13.7238 14.3248L11.4515 16.0968Z" fill="#E4761B"/>
<path fill-rule="evenodd" clip-rule="evenodd" d="M11.2794 6.14955C11.2942 6.14312 11.3114 6.14587 11.3234 6.1566L14.3584 8.86129C14.361 8.86363 14.3634 8.86629 14.3653 8.86922L15.6026 10.7268C15.6109 10.7391 15.6118 10.755 15.6051 10.7683C15.5983 10.7816 15.585 10.7902 15.5701 10.7908L11.1966 10.9851C11.1852 10.9856 11.1741 10.9814 11.1659 10.9734C11.1577 10.9655 11.1532 10.9545 11.1535 10.943L11.2546 6.18651C11.255 6.17041 11.2646 6.15598 11.2794 6.14955ZM11.3353 6.27782L11.237 10.9007L15.4933 10.7116L14.2994 8.91935L11.3353 6.27782ZM8.68196 6.20389C8.69666 6.21021 8.70639 6.22445 8.70692 6.24043L8.86256 10.9425C8.86294 10.954 8.8585 10.9652 8.85031 10.9733C8.84212 10.9813 8.83093 10.9857 8.81943 10.9851L4.43817 10.7908C4.4233 10.7902 4.40994 10.7816 4.40318 10.7683C4.39643 10.7551 4.39733 10.7393 4.40553 10.7269L5.63509 8.86932C5.63708 8.86631 5.63945 8.86358 5.64216 8.86118L8.63822 6.2109C8.65021 6.2003 8.66725 6.19756 8.68196 6.20389ZM5.70103 8.91937L4.51469 10.7116L8.77848 10.9007L8.62722 6.33089L5.70103 8.91937ZM6.26062 14.2867C6.2744 14.2809 6.29021 14.2831 6.30198 14.2922L8.57432 16.0643C8.58555 16.073 8.59147 16.087 8.58999 16.1011C8.5885 16.1153 8.57982 16.1277 8.56702 16.1339L5.93671 17.4163C5.92313 17.4229 5.90701 17.4216 5.89469 17.4129C5.88236 17.4042 5.87578 17.3894 5.87754 17.3744L6.23551 14.32C6.23724 14.3052 6.24685 14.2924 6.26062 14.2867ZM13.7398 14.2867C13.7536 14.2924 13.7632 14.3051 13.7649 14.3199L14.1307 17.3743C14.1325 17.3893 14.1259 17.4041 14.1136 17.4128C14.1013 17.4216 14.0852 17.4229 14.0716 17.4163L11.4335 16.1339C11.4207 16.1277 11.412 16.1153 11.4105 16.1011C11.409 16.087 11.4149 16.073 11.4261 16.0643L13.6985 14.2922C13.7102 14.2831 13.726 14.281 13.7398 14.2867ZM6.30905 14.4025L5.96841 17.309L8.47134 16.0887L6.30905 14.4025ZM11.5292 16.0886L14.0396 17.309L13.6916 14.4023L11.5292 16.0886Z" fill="#E4761B"/>
<path d="M14.0898 17.3792L11.4517 16.0968L11.6618 17.8144L11.6385 18.5372L14.0898 17.3792ZM5.9187 17.3792L8.37002 18.5372L8.35446 17.8144L8.54901 16.0968L5.9187 17.3792Z" fill="#D7C1B3"/>
<path fill-rule="evenodd" clip-rule="evenodd" d="M11.4275 16.0632C11.4398 16.0544 11.456 16.0531 11.4696 16.0597L14.1077 17.3421C14.122 17.349 14.131 17.3636 14.1309 17.3794C14.1308 17.3953 14.1216 17.4097 14.1073 17.4165L11.6559 18.5746C11.6429 18.5807 11.6276 18.5796 11.6156 18.5718C11.6036 18.5639 11.5965 18.5503 11.597 18.5359L11.6202 17.8163L11.4105 16.1018C11.4087 16.0868 11.4152 16.072 11.4275 16.0632ZM8.57266 16.0631C8.58498 16.0718 8.59158 16.0865 8.58989 16.1015L8.39565 17.8163L8.41116 18.5364C8.41146 18.5507 8.40434 18.5641 8.39232 18.5719C8.38031 18.5797 8.36512 18.5807 8.35217 18.5746L5.90085 17.4165C5.88649 17.4097 5.8773 17.3953 5.8772 17.3795C5.8771 17.3636 5.88612 17.3491 5.90039 17.3421L8.5307 16.0597C8.54426 16.0531 8.56034 16.0544 8.57266 16.0631ZM11.5017 16.1671L11.7026 17.8094C11.7029 17.8115 11.703 17.8137 11.7029 17.8158L11.6818 18.4711L13.9941 17.3787L11.5017 16.1671ZM6.01392 17.3786L8.32709 18.4714L8.31297 17.8153C8.31293 17.8135 8.31301 17.8116 8.31322 17.8098L8.49931 16.1669L6.01392 17.3786Z" fill="#D7C1B3"/>
<path d="M8.40887 13.1901L6.21436 12.545L7.76297 11.8378L8.40887 13.1901ZM11.5917 13.1901L12.2376 11.8378L13.794 12.545L11.5917 13.1901Z" fill="#233447"/>
<path fill-rule="evenodd" clip-rule="evenodd" d="M7.7456 11.8001C7.76612 11.7908 7.79037 11.7996 7.80009 11.8199L8.44599 13.1722C8.45301 13.1869 8.45072 13.2044 8.44014 13.2168C8.42956 13.2292 8.41267 13.2342 8.39703 13.2296L6.20251 12.5845C6.18597 12.5797 6.17419 12.565 6.17296 12.5479C6.17173 12.5307 6.18131 12.5146 6.19699 12.5074L7.7456 11.8001ZM12.2001 11.8199C12.2098 11.7996 12.234 11.7908 12.2545 11.8001L13.8109 12.5074C13.8267 12.5145 13.8363 12.5306 13.835 12.5478C13.8338 12.565 13.822 12.5797 13.8055 12.5845L11.6032 13.2296C11.5875 13.2342 11.5706 13.2292 11.5601 13.2168C11.5495 13.2044 11.5472 13.1869 11.5542 13.1722L12.2001 11.8199ZM12.2573 11.892L11.6686 13.1244L13.6756 12.5365L12.2573 11.892ZM6.33194 12.5365L8.33153 13.1243L7.743 11.8921L6.33194 12.5365Z" fill="#233447"/>
<path d="M5.91867 17.3792L6.2922 14.2238L3.85645 14.2937L5.91867 17.3792ZM13.7162 14.2238L14.0897 17.3792L16.152 14.2937L13.7162 14.2238ZM15.5683 10.7496L11.1949 10.9439L11.5995 13.1901L12.2454 11.8377L13.8018 12.545L15.5683 10.7496ZM6.21439 12.545L7.77078 11.8377L8.4089 13.1901L8.82135 10.9439L4.44009 10.7496L6.21439 12.545Z" fill="#CD6116"/>
<path fill-rule="evenodd" clip-rule="evenodd" d="M4.40215 10.7329C4.40905 10.7174 4.42476 10.7077 4.44175 10.7084L8.823 10.9027C8.83493 10.9032 8.84605 10.9089 8.85349 10.9182C8.86093 10.9276 8.86397 10.9397 8.86181 10.9514L8.44937 13.1975C8.44613 13.2152 8.43186 13.2287 8.41406 13.231C8.39626 13.2333 8.379 13.2239 8.37134 13.2077L7.7506 11.8922L6.23132 12.5826C6.21554 12.5897 6.19697 12.5863 6.18479 12.574L4.4105 10.7786C4.39856 10.7666 4.39525 10.7484 4.40215 10.7329ZM15.6059 10.7328C15.6128 10.7483 15.6095 10.7665 15.5976 10.7786L13.8311 12.5739C13.8189 12.5863 13.8003 12.5897 13.7845 12.5826L12.2651 11.8921L11.6366 13.2079C11.6289 13.224 11.6116 13.2334 11.5938 13.231C11.5761 13.2286 11.5618 13.215 11.5587 13.1974L11.154 10.9513C11.1519 10.9395 11.1549 10.9275 11.1624 10.9182C11.1698 10.9089 11.1809 10.9032 11.1928 10.9027L15.5663 10.7084C15.5833 10.7077 15.599 10.7174 15.6059 10.7328ZM4.54333 10.7955L6.22335 12.4955L7.75349 11.8002C7.77406 11.7908 7.79834 11.7997 7.80798 11.8201L8.39128 13.0563L8.77197 10.9831L4.54333 10.7955ZM11.2437 10.9831L11.6173 13.0567L12.2079 11.82C12.2176 11.7997 12.2418 11.7909 12.2624 11.8002L13.7924 12.4955L15.4651 10.7955L11.2437 10.9831ZM6.32251 14.1959C6.33062 14.2048 6.33447 14.2167 6.33306 14.2286L5.95953 17.3841C5.95749 17.4013 5.94496 17.4153 5.92813 17.4194C5.9113 17.4234 5.89373 17.4165 5.88412 17.4022L3.82189 14.3166C3.81355 14.3041 3.81265 14.2881 3.81955 14.2748C3.82645 14.2614 3.84005 14.2529 3.85508 14.2525L6.29084 14.1825C6.30284 14.1822 6.31441 14.1871 6.32251 14.1959ZM13.6855 14.1959C13.6937 14.1871 13.7052 14.1822 13.7172 14.1825L16.153 14.2525C16.168 14.2529 16.1816 14.2614 16.1885 14.2748C16.1954 14.2881 16.1945 14.3041 16.1862 14.3166L14.1239 17.4022C14.1143 17.4165 14.0968 17.4234 14.0799 17.4194C14.0631 17.4153 14.0506 17.4013 14.0485 17.3841L13.675 14.2286C13.6736 14.2167 13.6774 14.2048 13.6855 14.1959ZM3.93209 14.3328L5.89062 17.2632L6.24537 14.2664L3.93209 14.3328ZM13.7627 14.2664L14.1174 17.2632L16.076 14.3328L13.7627 14.2664Z" fill="#CD6116"/>
<path d="M4.43994 10.7496L6.27649 14.3248L6.21423 12.545L4.43994 10.7496ZM13.8017 12.545L13.7238 14.3248L15.5682 10.7496L13.8017 12.545ZM8.8212 10.9439L8.40875 13.1901L8.92236 15.8404L9.03909 12.3507L8.8212 10.9439ZM11.1947 10.9439L10.9846 12.3429L11.078 15.8404L11.5994 13.1901L11.1947 10.9439Z" fill="#E4751F"/>
<path fill-rule="evenodd" clip-rule="evenodd" d="M15.5925 10.7162C15.609 10.7282 15.6143 10.7504 15.605 10.7685L13.7606 14.3437C13.7518 14.3609 13.7321 14.3697 13.7133 14.3647C13.6945 14.3597 13.6818 14.3424 13.6826 14.323L13.7604 12.5432C13.7609 12.533 13.7651 12.5233 13.7723 12.5161L15.5388 10.7207C15.5531 10.7062 15.5759 10.7042 15.5925 10.7162ZM4.41578 10.7162C4.43231 10.7043 4.45509 10.7062 4.46942 10.7207L6.24371 12.516C6.25099 12.5234 6.25523 12.5332 6.2556 12.5436L6.31785 14.3234C6.31853 14.3427 6.30569 14.3599 6.28696 14.3648C6.26823 14.3696 6.24862 14.3608 6.23979 14.3436L4.40324 10.7685C4.39393 10.7504 4.39926 10.7282 4.41578 10.7162ZM4.59957 10.9699L6.22879 14.1414L6.17356 12.5625L4.59957 10.9699ZM13.8423 12.5626L13.7734 14.1388L15.4067 10.9727L13.8423 12.5626ZM11.1942 10.9027C11.2144 10.9024 11.2319 10.9168 11.2354 10.9366L11.6401 13.1828C11.641 13.1878 11.641 13.193 11.64 13.198L11.1186 15.8483C11.1145 15.869 11.0956 15.8833 11.0746 15.8815C11.0536 15.8797 11.0373 15.8625 11.0367 15.8415L10.9433 12.344C10.9433 12.3416 10.9434 12.3392 10.9438 12.3368L11.1539 10.9378C11.1569 10.9178 11.1739 10.903 11.1942 10.9027ZM8.82184 10.9027C8.842 10.903 8.85902 10.9177 8.8621 10.9376L9.07999 12.3444C9.08039 12.3469 9.08054 12.3495 9.08046 12.3521L8.96373 15.8417C8.96302 15.8627 8.94665 15.8799 8.92568 15.8815C8.90472 15.8832 8.88585 15.8688 8.88186 15.8482L8.36825 13.1979C8.36727 13.1929 8.36724 13.1877 8.36817 13.1826L8.78062 10.9365C8.78426 10.9167 8.80168 10.9024 8.82184 10.9027ZM8.45087 13.1899L8.89336 15.4732L8.99773 12.3532L8.8178 11.1916L8.45087 13.1899ZM11.1985 11.1975L11.0261 12.3455L11.1094 15.4669L11.5574 13.1897L11.1985 11.1975Z" fill="#E4751F"/>
<path d="M11.5995 13.19L11.0781 15.8403L11.4516 16.0968L13.724 14.3247L13.8018 12.5449L11.5995 13.19ZM6.21436 12.5449L6.27661 14.3247L8.54895 16.0968L8.92248 15.8403L8.40887 13.19L6.21436 12.5449Z" fill="#F6851B"/>
<path fill-rule="evenodd" clip-rule="evenodd" d="M13.8271 12.5124C13.8376 12.5207 13.8435 12.5334 13.8429 12.5467L13.7651 14.3265C13.7645 14.3386 13.7587 14.3498 13.7492 14.3573L11.4769 16.1293C11.4627 16.1404 11.4429 16.141 11.428 16.1308L11.0545 15.8743C11.0409 15.865 11.0342 15.8485 11.0374 15.8323L11.5588 13.1821C11.5617 13.1669 11.5729 13.1547 11.5877 13.1504L13.79 12.5053C13.8028 12.5016 13.8166 12.5042 13.8271 12.5124ZM6.18885 12.5123C6.19934 12.5042 6.2131 12.5016 6.22584 12.5053L8.42036 13.1504C8.43518 13.1548 8.44633 13.167 8.44926 13.1822L8.96287 15.8325C8.966 15.8486 8.95926 15.865 8.94571 15.8743L8.57218 16.1308C8.55732 16.141 8.53755 16.1404 8.52334 16.1293L6.251 14.3573C6.24137 14.3498 6.23556 14.3384 6.23513 14.3262L6.17288 12.5464C6.17241 12.5331 6.17836 12.5205 6.18885 12.5123ZM11.635 13.2226L11.1237 15.8217L11.4499 16.0456L13.6833 14.3039L13.7578 12.6008L11.635 13.2226ZM6.25747 12.6007L8.3729 13.2225L8.87659 15.8216L8.55032 16.0456L6.31705 14.3041L6.25747 12.6007Z" fill="#F6851B"/>
<path d="M11.6385 18.5372L11.6618 17.8144L11.4673 17.6434H8.53345L8.35446 17.8144L8.37002 18.5372L5.9187 17.3792L6.77472 18.0786L8.5101 19.2833H11.4906L13.2338 18.0786L14.0898 17.3792L11.6385 18.5372Z" fill="#C0AD9E"/>
<path fill-rule="evenodd" clip-rule="evenodd" d="M5.88359 17.3572C5.89475 17.3396 5.91732 17.3331 5.93619 17.342L8.3271 18.4715L8.31297 17.8154C8.31272 17.8038 8.31735 17.7927 8.32572 17.7847L8.5047 17.6137C8.51239 17.6064 8.52262 17.6023 8.53327 17.6023H11.4671C11.4771 17.6023 11.4868 17.6059 11.4944 17.6126L11.6889 17.7835C11.6982 17.7917 11.7033 17.8035 11.7029 17.8159L11.6818 18.4711L14.0719 17.342C14.0908 17.3331 14.1134 17.3396 14.1245 17.3572C14.1357 17.3749 14.1319 17.398 14.1158 17.4112L13.2597 18.1107C13.2589 18.1114 13.258 18.1121 13.2571 18.1127L11.5139 19.3174C11.507 19.3222 11.4988 19.3247 11.4904 19.3247H8.50992C8.50149 19.3247 8.49326 19.3221 8.48634 19.3173L6.75096 18.1127C6.75007 18.112 6.74921 18.1114 6.74837 18.1107L5.89235 17.4112C5.8762 17.398 5.87244 17.3749 5.88359 17.3572ZM6.20564 17.5606L6.79945 18.0458L8.52287 19.2422H11.4775L13.2087 18.0458L13.8025 17.5606L11.6559 18.5746C11.6429 18.5808 11.6276 18.5797 11.6156 18.5718C11.6036 18.5639 11.5965 18.5504 11.597 18.536L11.6197 17.8326L11.4515 17.6848H8.54985L8.39599 17.8318L8.41116 18.5364C8.41147 18.5507 8.40434 18.5642 8.39233 18.572C8.38031 18.5797 8.36512 18.5808 8.35218 18.5746L6.20564 17.5606Z" fill="#C0AD9E"/>
<path d="M11.4515 16.0968L11.0779 15.8403H8.92233L8.5488 16.0968L8.35425 17.8144L8.53323 17.6435H11.467L11.6616 17.8144L11.4515 16.0968Z" fill="#161616"/>
<path fill-rule="evenodd" clip-rule="evenodd" d="M8.89899 15.8063C8.90587 15.8016 8.91404 15.7991 8.9224 15.7991H11.078C11.0864 15.7991 11.0945 15.8016 11.1014 15.8063L11.4749 16.0628C11.4847 16.0695 11.4911 16.0801 11.4926 16.0918L11.7027 17.8094C11.7048 17.8265 11.6961 17.843 11.6809 17.851C11.6658 17.8589 11.6472 17.8568 11.6344 17.8454L11.4515 17.6847H8.54988L8.38287 17.8443C8.3703 17.8563 8.35155 17.8591 8.33596 17.8514C8.32038 17.8437 8.3113 17.8271 8.31325 17.8098L8.5078 16.0922C8.50915 16.0803 8.51559 16.0696 8.52545 16.0628L8.89899 15.8063ZM8.93523 15.8816L8.5878 16.1202L8.4082 17.7059L8.50473 17.6136C8.51242 17.6063 8.52265 17.6022 8.5333 17.6022H11.4671C11.4772 17.6022 11.4869 17.6059 11.4944 17.6125L11.6075 17.7119L11.4128 16.1203L11.0652 15.8816H8.93523Z" fill="#161616"/>
<path d="M19.2646 7.0268L19.9261 3.85578L18.9378 0.910156L11.4515 6.45943L14.3308 8.8921L18.4008 10.0812L19.3035 9.032L18.9144 8.7522L19.537 8.18484L19.0545 7.81178L19.6771 7.33768L19.2646 7.0268ZM0.0820312 3.85578L0.7435 7.0268L0.323273 7.33768L0.945831 7.81178L0.47113 8.18484L1.09369 8.7522L0.70459 9.032L1.59952 10.0812L5.66949 8.8921L8.54883 6.45943L1.06256 0.910156L0.0820312 3.85578Z" fill="#763D16"/>
<path fill-rule="evenodd" clip-rule="evenodd" d="M1.05019 0.87081C1.06283 0.866827 1.07661 0.869139 1.08725 0.877027L8.57352 6.42631C8.58365 6.43382 8.58979 6.44554 8.59019 6.45813C8.59059 6.47073 8.58521 6.48281 8.57558 6.49095L5.69624 8.92362C5.69184 8.92734 5.6867 8.9301 5.68116 8.93172L1.61118 10.1209C1.59555 10.1254 1.57869 10.1204 1.56812 10.108L0.673196 9.05877C0.66571 9.04999 0.662241 9.03849 0.66363 9.02704C0.665019 9.0156 0.671139 9.00525 0.680507 8.99852L1.02829 8.74843L0.443339 8.21534C0.434371 8.20716 0.429455 8.19546 0.429898 8.18334C0.430341 8.17123 0.436098 8.15992 0.445639 8.15242L0.878418 7.8123L0.29828 7.37051C0.287949 7.36264 0.281924 7.35038 0.282014 7.3374C0.282104 7.32443 0.288299 7.31225 0.298739 7.30453L0.697715 7.00937L0.0416401 3.86421C0.0401528 3.85708 0.0405812 3.84968 0.0428817 3.84277L1.02341 0.897147C1.02759 0.884588 1.03755 0.874793 1.05019 0.87081ZM18.9502 0.870795C18.9628 0.874758 18.9728 0.884521 18.977 0.897054L19.9653 3.84268C19.9677 3.84962 19.9681 3.85705 19.9666 3.86421L19.3105 7.00962L19.702 7.30475C19.7123 7.31253 19.7184 7.32468 19.7184 7.33759C19.7185 7.3505 19.7125 7.36268 19.7022 7.37051L19.1224 7.81204L19.5623 8.15222C19.572 8.15968 19.5778 8.17101 19.5783 8.18318C19.5788 8.19536 19.5739 8.20712 19.5649 8.21534L18.9799 8.74843L19.3277 8.99852C19.3371 9.00527 19.3433 9.01565 19.3446 9.02713C19.346 9.03861 19.3425 9.05014 19.3349 9.05891L18.4322 10.1081C18.4216 10.1204 18.4048 10.1254 18.3893 10.1209L14.3193 8.93172C14.3138 8.9301 14.3086 8.92734 14.3042 8.92362L11.4249 6.49095C11.4152 6.48281 11.4099 6.47073 11.4103 6.45813C11.4107 6.44554 11.4168 6.43382 11.4269 6.42631L18.9132 0.877027C18.9238 0.869149 18.9376 0.866832 18.9502 0.870795ZM11.5181 6.46156L14.3509 8.85496L18.3869 10.0342L19.2429 9.03922L18.8903 8.78571C18.8802 8.77844 18.874 8.76701 18.8732 8.7546C18.8725 8.74218 18.8774 8.73011 18.8866 8.72173L19.4729 8.18744L19.0293 7.84442C19.0191 7.83657 19.0132 7.82446 19.0132 7.81164C19.0133 7.79882 19.0193 7.78675 19.0295 7.77897L19.6087 7.33786L19.2398 7.05975C19.227 7.05013 19.221 7.03402 19.2242 7.01839L19.8834 3.85831L18.9167 0.977196L11.5181 6.46156ZM1.08383 0.97728L0.124818 3.85826L0.784016 7.01839C0.787304 7.03415 0.781113 7.05039 0.768158 7.05997L0.392112 7.33817L0.970949 7.77897C0.981112 7.78671 0.987118 7.79871 0.987215 7.81148C0.987312 7.82424 0.981491 7.83633 0.971447 7.84422L0.535052 8.18718L1.1216 8.72173C1.1308 8.73011 1.13572 8.74218 1.135 8.7546C1.13428 8.76701 1.128 8.77844 1.1179 8.78571L0.765184 9.03934L1.61367 10.0341L5.64955 8.85496L8.48241 6.46156L1.08383 0.97728Z" fill="#763D16"/>
<path d="M18.401 10.0813L14.331 8.89214L15.5683 10.7497L13.724 14.3248L16.152 14.2937H19.7706L18.401 10.0813ZM5.66964 8.89214L1.59967 10.0813L0.245605 14.2937H3.85644L6.27664 14.3248L4.44009 10.7497L5.66964 8.89214ZM11.1949 10.944L11.4517 6.45947L12.6345 3.26514H7.38168L8.54898 6.45947L8.82135 10.944L8.91473 12.3585L8.92251 15.8404H11.0781L11.0937 12.3585L11.1949 10.944Z" fill="#F6851B"/>
<path fill-rule="evenodd" clip-rule="evenodd" d="M7.34764 3.24149C7.35537 3.23045 7.36801 3.22388 7.3815 3.22388H12.6343C12.6479 3.22388 12.6605 3.23048 12.6682 3.24156C12.676 3.25264 12.6778 3.2668 12.6731 3.27946L11.4924 6.468L11.2359 10.9463L11.2359 10.9469L11.1348 12.3601L11.1193 15.8406C11.1192 15.8633 11.1007 15.8817 11.0779 15.8817H8.92233C8.89955 15.8817 8.88106 15.8633 8.88101 15.8405L8.87323 12.3599L8.77993 10.9467L8.77992 10.9465L8.50792 6.46798L7.34268 3.2793C7.33806 3.26664 7.33991 3.25253 7.34764 3.24149ZM7.44057 3.30642L8.58762 6.44533C8.58898 6.44908 8.5898 6.453 8.59004 6.45698L8.8624 10.9413L8.86241 10.9415L8.95578 12.3558C8.95584 12.3567 8.95587 12.3575 8.95587 12.3584L8.96356 15.7991H11.0368L11.0522 12.3583C11.0522 12.3574 11.0522 12.3565 11.0523 12.3556L11.1534 10.9416L11.1535 10.941L11.4102 6.45712C11.4105 6.45303 11.4113 6.449 11.4127 6.44516L12.575 3.30642H7.44057ZM14.2975 8.86769C14.3078 8.85372 14.3257 8.84767 14.3424 8.85254L18.4124 10.0417C18.4255 10.0455 18.4359 10.0556 18.4401 10.0685L19.8097 14.281C19.8138 14.2936 19.8116 14.3073 19.8038 14.318C19.7961 14.3287 19.7836 14.335 19.7704 14.335H16.1518L13.7243 14.3661C13.7098 14.3663 13.6963 14.3589 13.6887 14.3466C13.681 14.3342 13.6804 14.3188 13.6871 14.3059L15.5203 10.7523L14.2964 8.91501C14.2868 8.90057 14.2872 8.88166 14.2975 8.86769ZM5.70272 8.86764C5.71301 8.88158 5.7135 8.90046 5.70394 8.91491L4.48771 10.7523L6.31322 14.306C6.31984 14.3189 6.31922 14.3343 6.31158 14.3466C6.30395 14.3589 6.29042 14.3663 6.27593 14.3661L3.85626 14.335H0.245424C0.232222 14.335 0.219815 14.3287 0.212037 14.3181C0.204258 14.3074 0.202044 14.2937 0.20608 14.2811L1.56014 10.0687C1.56433 10.0556 1.57473 10.0455 1.58789 10.0417L5.65786 8.85254C5.67451 8.84767 5.69242 8.85371 5.70272 8.86764ZM1.63213 10.1147L0.302089 14.2525H3.85679L6.20836 14.2827L4.40315 10.7685C4.39633 10.7553 4.39721 10.7394 4.40544 10.7269L5.57276 8.9634L1.63213 10.1147ZM14.428 8.96354L15.6025 10.7268C15.6109 10.7393 15.6117 10.7553 15.6049 10.7686L13.792 14.2827L16.1513 14.2525L16.1518 14.2525L19.7135 14.2525L18.3682 10.1148L14.428 8.96354Z" fill="#F6851B"/>
</svg>
