<svg width="40" height="40" viewBox="0 0 40 40" fill="none" xmlns="http://www.w3.org/2000/svg">
<path fill-rule="evenodd" clip-rule="evenodd" d="M3.72909 19.0957C11.7821 15.5676 17.1521 13.2418 19.839 12.118C27.5105 8.90939 29.1047 8.35202 30.1436 8.33343C30.3721 8.32958 30.8831 8.38654 31.2141 8.65656C31.4935 8.88459 31.5705 9.19264 31.6072 9.40881C31.644 9.62504 31.6898 10.1175 31.6534 10.5023C31.2377 14.8946 29.4389 25.5535 28.5237 30.473C28.1365 32.5546 27.374 33.2525 26.6358 33.3209C25.3655 33.4384 24.3372 32.7012 23.1927 31.8808C22.8919 31.6652 22.5831 31.4438 22.2598 31.2306C20.9906 30.3941 20.0097 29.7224 19.0262 29.0489C18.1256 28.4322 17.223 27.8141 16.0949 27.0666C13.7475 25.5111 14.7302 24.5586 16.0405 23.2884C16.2526 23.0828 16.4733 22.8689 16.6899 22.6427C16.7866 22.5417 17.2595 22.0996 17.9262 21.4763L17.9279 21.4748C20.067 19.475 24.1973 15.6137 24.3016 15.1667C24.3187 15.0934 24.3346 14.82 24.1731 14.6757C24.0116 14.5312 23.7732 14.5806 23.6011 14.6199C23.3573 14.6755 19.4732 17.257 11.949 22.3642C10.8466 23.1254 9.84802 23.4963 8.95332 23.4769C7.96695 23.4555 6.06964 22.9161 4.65921 22.4551C4.45568 22.3886 4.25701 22.3257 4.06515 22.2651L4.05502 22.2619C2.62142 21.8086 1.56862 21.4757 1.67402 20.6304C1.73639 20.1301 2.42143 19.6186 3.72909 19.0957Z" fill="#98A2B2"/>
</svg>
