<svg width="40" height="40" viewBox="0 0 40 40" fill="none" xmlns="http://www.w3.org/2000/svg">
<path fill-rule="evenodd" clip-rule="evenodd" d="M36.6666 9.93598C35.4166 10.5898 34.1666 10.8078 32.7083 11.0257C34.1666 10.1539 35.2082 8.84624 35.6249 7.10267C34.3749 7.97439 32.9166 8.41031 31.2499 8.84624C29.9999 7.5386 28.1249 6.66675 26.2499 6.66675C21.8749 6.66675 18.5416 11.0257 19.5832 15.3847C13.9583 15.1668 8.95828 12.3334 5.41659 7.97439C3.5416 11.2436 4.58326 15.3847 7.49992 17.5642C6.45825 17.5642 5.41659 17.1283 4.37492 16.6923C4.37492 19.9616 6.6666 23.0129 9.7916 23.8848C8.74993 24.1026 7.70826 24.3205 6.6666 24.1026C7.49992 26.936 9.99994 29.1154 13.1249 29.1154C10.6249 31.077 6.87494 32.1668 3.33325 31.7309C6.45825 33.6924 9.99994 35.0001 13.7499 35.0001C26.4583 35.0001 33.5416 23.8848 33.1249 13.6411C34.5833 12.7693 35.8333 11.4616 36.6666 9.93598Z" fill="#98A2B2"/>
</svg>
